<svg height="511pt" viewBox="1 -45 511.99933 511" width="511pt" xmlns="http://www.w3.org/2000/svg"><path d="m379 220.5c5.519531 0 10-4.480469 10-10s-4.480469-10-10-10-10 4.480469-10 10 4.480469 10 10 10zm0 0"/><path d="m133 220.5c5.519531 0 10-4.480469 10-10s-4.480469-10-10-10-10 4.480469-10 10 4.480469 10 10 10zm0 0"/><path d="m0 410.5c0 5.523438 4.476562 10 10 10h492c5.519531 0 10-4.476562 10-10s-4.480469-10-10-10h-11.316406l9.636718-14.453125c3.0625-4.597656 1.820313-10.804687-2.773437-13.867187s-10.804687-1.824219-13.867187 2.773437l-11.679688 17.519531-11.679688-17.519531c-3.0625-4.597656-9.273437-5.839844-13.867187-2.773437-4.597656 3.0625-5.835937 9.269531-2.773437 13.867187l9.632812 14.453125h-42.863281c-6.761719-26.152344-10.546875-52.984375-11.296875-80h102.847656c3.601562 0 6.925781-1.9375 8.699219-5.074219 1.777343-3.132812 1.730469-6.980469-.125-10.070312l-50.914063-84.855469h22.339844c3.601562 0 6.925781-1.9375 8.703125-5.074219 1.773437-3.132812 1.726563-6.980469-.128906-10.070312l-50.914063-84.855469h2.339844c3.765625 0 7.210938-2.113281 8.914062-5.46875 1.707032-3.359375 1.382813-7.386719-.835937-10.429688l-73-99.996093c-1.882813-2.582031-4.882813-4.105469-8.078125-4.105469s-6.195312 1.523438-8.078125 4.105469l-73 99.996093c-2.21875 3.042969-2.542969 7.070313-.835937 10.429688 1.703124 3.355469 5.148437 5.46875 8.914062 5.46875h2.335938l-42.335938 70.5625-42.335938-70.5625h2.335938c3.765625 0 7.210938-2.113281 8.914062-5.46875 1.707032-3.359375 1.382813-7.386719-.835937-10.429688l-73-99.996093c-1.882813-2.582031-4.882813-4.105469-8.078125-4.105469s-6.195312 1.523438-8.078125 4.105469l-73 99.996093c-2.21875 3.042969-2.542969 7.070313-.835937 10.429688 1.703124 3.355469 5.148437 5.46875 8.914062 5.46875h2.339844l-50.914063 84.855469c-1.855469 3.085937-1.902343 6.9375-.128906 10.070312 1.777344 3.136719 5.101563 5.074219 8.703125 5.074219h22.339844l-50.914063 84.855469c-1.855469 3.085937-1.902343 6.9375-.128906 10.070312 1.777344 3.136719 5.101563 5.074219 8.703125 5.074219h102.847656c-.75 27.015625-4.535156 53.847656-11.296875 80h-42.867187l9.636718-14.453125c3.0625-4.597656 1.824219-10.804687-2.773437-13.867187-4.59375-3.0625-10.804687-1.824219-13.867187 2.773437l-11.679688 17.519531-11.679688-17.519531c-3.0625-4.597656-9.269531-5.839844-13.867187-2.773437-4.597656 3.0625-5.835937 9.269531-2.773437 13.867187l9.636718 14.453125h-11.316406c-5.523438 0-10 4.476562-10 10zm338.847656-90c-.75 27.015625-4.535156 53.847656-11.296875 80h-62.867187l9.636718-14.453125c3.0625-4.597656 1.820313-10.804687-2.773437-13.867187s-10.804687-1.824219-13.867187 2.773437l-11.679688 17.519531-11.679688-17.519531c-3.0625-4.597656-9.273437-5.839844-13.867187-2.773437-4.597656 3.0625-5.835937 9.269531-2.773437 13.867187l9.636718 14.453125h-42.867187c-6.757813-26.152344-10.546875-52.984375-11.296875-80zm-60.511718-100-22.335938 37.230469-22.339844-37.230469zm111.484374 180h-41.640624c6.394531-26.199219 9.964843-53.019531 10.675781-80h20.289062c.710938 26.984375 4.28125 53.800781 10.675781 80zm-68.160156-280h17.339844c5.523438 0 10-4.476562 10-10s-4.476562-10-10-10h-23.320312l53.320312-73.039062 53.320312 73.039062h-43.320312c-5.523438 0-10 4.476562-10 10s4.476562 10 10 10h37.335938l48 80c-15.820313 0-29.351563 0-45.335938 0-5.523438 0-10 4.476562-10 10s4.476562 10 10 10h17.335938l48 80h-230.671876c12.714844-21.191406 34.449219-57.417969 47.996094-80h37.339844c5.523438 0 10-4.476562 10-10s-4.476562-10-10-10h-65.339844zm-245.996094 100h17.335938c5.523438 0 10-4.476562 10-10s-4.476562-10-10-10h-45.339844l48-80h37.339844c5.523438 0 10-4.476562 10-10s-4.476562-10-10-10h-43.320312l53.320312-73.039062 53.320312 73.039062h-23.320312c-5.523438 0-10 4.476562-10 10s4.476562 10 10 10h17.335938l48 80c-6.664063 0-57.925782 0-65.335938 0-5.523438 0-10 4.476562-10 10s4.476562 10 10 10h37.335938l34 56.667969-13.996094 23.332031h-202.675782zm57.191407 100h20.289062c.710938 26.980469 4.28125 53.800781 10.675781 80h-41.640624c6.394531-26.199219 9.964843-53.015625 10.675781-80zm0 0"/></svg>